HIERARCHY
ROOT Hips
{
	OFFSET 0.000000 0.000000 0.000000
	CHANNELS 6 Xposition Yposition Zposition Zrotation Yrotation Xrotation 
	JOINT Spine1
	{
		OFFSET -0.013727 5.003763 -0.053727
		CHANNELS 3 Zrotation Yrotation Xrotation
		JOINT Spine2
		{
			OFFSET -0.000000 7.125302 -0.029825
			CHANNELS 3 Zrotation Yrotation Xrotation
			JOINT Chest
			{
				OFFSET -0.000001 7.550065 -0.815971
				CHANNELS 3 Zrotation Yrotation Xrotation
				JOINT Neck1
				{
					OFFSET -0.181677 26.311296 -0.553349
					CHANNELS 3 Zrotation Yrotation Xrotation
					JOINT Neck2
					{
						OFFSET -0.000003 7.709399 2.302585
						CHANNELS 3 Zrotation Yrotation Xrotation
						JOINT Head
						{
							OFFSET -0.000005 6.128913 1.953709
							CHANNELS 3 Zrotation Yrotation Xrotation
							JOINT HeadEnd
							{
								OFFSET 0.003598 16.065401 -1.835380
								CHANNELS 3 Zrotation Yrotation Xrotation
								End Site
								{
									OFFSET 0.000000 0.000000 0.000000
								}
							}
							JOINT Jaw
							{
								OFFSET 0.002637 0.475592 3.094940
								CHANNELS 3 Zrotation Yrotation Xrotation
								End Site
								{
									OFFSET 0.000000 0.000000 0.000000
								}
							}
							JOINT LeftEye
							{
								OFFSET 3.206380 5.380208 7.586883
								CHANNELS 3 Zrotation Yrotation Xrotation
								End Site
								{
									OFFSET 0.000000 0.000000 0.000000
								}
							}
							JOINT RightEye
							{
								OFFSET -3.222440 5.361867 7.558234
								CHANNELS 3 Zrotation Yrotation Xrotation
								End Site
								{
									OFFSET 0.000000 0.000000 0.000000
								}
							}
						}
					}
				}
				JOINT LeftShoulder
				{
					OFFSET 1.621651 23.237164 5.113413
					CHANNELS 3 Zrotation Yrotation Xrotation
					JOINT LeftArm
					{
						OFFSET 14.919845 0.000000 -5.502326
						CHANNELS 3 Zrotation Yrotation Xrotation
						JOINT LeftForeArm
						{
							OFFSET 28.739309 0.000003 -0.002588
							CHANNELS 3 Zrotation Yrotation Xrotation
							JOINT LeftHand
							{
								OFFSET 27.093979 -0.000003 0.002609
								CHANNELS 3 Zrotation Yrotation Xrotation
								JOINT LeftHandThumb1
								{
									OFFSET 2.276481 -1.392045 3.191413
									CHANNELS 3 Zrotation Yrotation Xrotation
									JOINT LeftHandThumb2
									{
										OFFSET 4.012840 -1.828126 1.641655
										CHANNELS 3 Zrotation Yrotation Xrotation
										JOINT LeftHandThumb3
										{
											OFFSET 2.798517 0.000001 -0.000002
											CHANNELS 3 Zrotation Yrotation Xrotation
											JOINT LeftHandThumbEnd
											{
												OFFSET 3.180790 -0.000002 0.000003
												CHANNELS 3 Zrotation Yrotation Xrotation
												End Site
												{
													OFFSET 0.000000 0.000000 0.000000
												}
											}
										}
									}
								}
								JOINT LeftHandIndex1
								{
									OFFSET 3.247553 -0.531998 2.296169
									CHANNELS 3 Zrotation Yrotation Xrotation
									JOINT LeftHandIndex2
									{
										OFFSET 6.364578 0.012062 0.178600
										CHANNELS 3 Zrotation Yrotation Xrotation
										JOINT LeftHandIndex3
										{
											OFFSET 3.662366 0.000001 -0.000000
											CHANNELS 3 Zrotation Yrotation Xrotation
											JOINT LeftHandIndex4
											{
												OFFSET 2.329243 0.000003 0.000005
												CHANNELS 3 Zrotation Yrotation Xrotation
												JOINT LeftHandIndexEnd
												{
													OFFSET 2.759619 -0.180540 -0.113024
													CHANNELS 3 Zrotation Yrotation Xrotation
													End Site
													{
														OFFSET 0.000000 0.000000 0.000000
													}
												}
											}
										}
									}
								}
								JOINT LeftHandMiddle1
								{
									OFFSET 3.163499 0.240982 1.000332
									CHANNELS 3 Zrotation Yrotation Xrotation
									JOINT LeftHandMiddle2
									{
										OFFSET 6.190778 -0.259276 -1.002549
										CHANNELS 3 Zrotation Yrotation Xrotation
										JOINT LeftHandMiddle3
										{
											OFFSET 4.356523 -0.000006 0.000000
											CHANNELS 3 Zrotation Yrotation Xrotation
											JOINT LeftHandMiddle4
											{
												OFFSET 2.996875 -0.000006 0.000001
												CHANNELS 3 Zrotation Yrotation Xrotation
												JOINT LeftHandMiddleEnd
												{
													OFFSET 2.304294 -0.294572 -0.031740
													CHANNELS 3 Zrotation Yrotation Xrotation
													End Site
													{
														OFFSET 0.000000 0.000000 0.000000
													}
												}
											}
										}
									}
								}
								JOINT LeftHandRing1
								{
									OFFSET 2.882642 -0.053650 -0.322543
									CHANNELS 3 Zrotation Yrotation Xrotation
									JOINT LeftHandRing2
									{
										OFFSET 5.854543 -0.486203 -1.373841
										CHANNELS 3 Zrotation Yrotation Xrotation
										JOINT LeftHandRing3
										{
											OFFSET 4.350580 0.000001 0.000003
											CHANNELS 3 Zrotation Yrotation Xrotation
											JOINT LeftHandRing4
											{
												OFFSET 2.651324 0.000008 0.000002
												CHANNELS 3 Zrotation Yrotation Xrotation
												JOINT LeftHandRingEnd
												{
													OFFSET 1.936110 0.077685 -0.000070
													CHANNELS 3 Zrotation Yrotation Xrotation
													End Site
													{
														OFFSET 0.000000 0.000000 0.000000
													}
												}
											}
										}
									}
								}
								JOINT LeftHandPinky1
								{
									OFFSET 2.865499 -0.310004 -1.600378
									CHANNELS 3 Zrotation Yrotation Xrotation
									JOINT LeftHandPinky2
									{
										OFFSET 5.087852 -1.331142 -1.771231
										CHANNELS 3 Zrotation Yrotation Xrotation
										JOINT LeftHandPinky3
										{
											OFFSET 3.070976 0.000003 0.000001
											CHANNELS 3 Zrotation Yrotation Xrotation
											JOINT LeftHandPinky4
											{
												OFFSET 1.549667 0.000001 0.000001
												CHANNELS 3 Zrotation Yrotation Xrotation
												JOINT LeftHandPinkyEnd
												{
													OFFSET 1.944894 -0.157803 0.057219
													CHANNELS 3 Zrotation Yrotation Xrotation
													End Site
													{
														OFFSET 0.000000 0.000000 0.000000
													}
												}
											}
										}
									}
								}
							}
						}
					}
				}
				JOINT RightShoulder
				{
					OFFSET -1.380118 23.180307 5.214158
					CHANNELS 3 Zrotation Yrotation Xrotation
					JOINT RightArm
					{
						OFFSET -15.037197 0.000012 -5.545604
						CHANNELS 3 Zrotation Yrotation Xrotation
						JOINT RightForeArm
						{
							OFFSET -28.736639 0.000002 -0.002597
							CHANNELS 3 Zrotation Yrotation Xrotation
							JOINT RightHand
							{
								OFFSET -27.133617 0.000001 0.002613
								CHANNELS 3 Zrotation Yrotation Xrotation
								JOINT RightHandThumb1
								{
									OFFSET -2.274036 -1.383990 3.163127
									CHANNELS 3 Zrotation Yrotation Xrotation
									JOINT RightHandThumb2
									{
										OFFSET -4.011429 -1.827468 1.640915
										CHANNELS 3 Zrotation Yrotation Xrotation
										JOINT RightHandThumb3
										{
											OFFSET -2.794934 -0.000003 -0.000003
											CHANNELS 3 Zrotation Yrotation Xrotation
											JOINT RightHandThumbEnd
											{
												OFFSET -3.183855 0.000004 0.000000
												CHANNELS 3 Zrotation Yrotation Xrotation
												End Site
												{
													OFFSET 0.000000 0.000000 0.000000
												}
											}
										}
									}
								}
								JOINT RightHandIndex1
								{
									OFFSET -3.253270 -0.520059 2.282866
									CHANNELS 3 Zrotation Yrotation Xrotation
									JOINT RightHandIndex2
									{
										OFFSET -6.341918 0.012473 0.178265
										CHANNELS 3 Zrotation Yrotation Xrotation
										JOINT RightHandIndex3
										{
											OFFSET -3.654874 -0.000010 -0.000001
											CHANNELS 3 Zrotation Yrotation Xrotation
											JOINT RightHandIndex4
											{
												OFFSET -2.327586 0.000000 0.000001
												CHANNELS 3 Zrotation Yrotation Xrotation
												JOINT RightHandIndexEnd
												{
													OFFSET -2.761789 -0.180658 -0.113079
													CHANNELS 3 Zrotation Yrotation Xrotation
													End Site
													{
														OFFSET 0.000000 0.000000 0.000000
													}
												}
											}
										}
									}
								}
								JOINT RightHandMiddle1
								{
									OFFSET -3.168107 0.246594 1.001030
									CHANNELS 3 Zrotation Yrotation Xrotation
									JOINT RightHandMiddle2
									{
										OFFSET -6.180830 -0.258835 -1.000896
										CHANNELS 3 Zrotation Yrotation Xrotation
										JOINT RightHandMiddle3
										{
											OFFSET -4.348905 -0.000001 -0.000000
											CHANNELS 3 Zrotation Yrotation Xrotation
											JOINT RightHandMiddle4
											{
												OFFSET -3.000243 -0.000004 -0.000002
												CHANNELS 3 Zrotation Yrotation Xrotation
												JOINT RightHandMiddleEnd
												{
													OFFSET -2.302518 -0.294371 -0.031706
													CHANNELS 3 Zrotation Yrotation Xrotation
													End Site
													{
														OFFSET 0.000000 0.000000 0.000000
													}
												}
											}
										}
									}
								}
								JOINT RightHandRing1
								{
									OFFSET -2.885694 -0.067952 -0.308858
									CHANNELS 3 Zrotation Yrotation Xrotation
									JOINT RightHandRing2
									{
										OFFSET -5.854197 -0.486133 -1.373732
										CHANNELS 3 Zrotation Yrotation Xrotation
										JOINT RightHandRing3
										{
											OFFSET -4.338814 -0.000003 -0.000001
											CHANNELS 3 Zrotation Yrotation Xrotation
											JOINT RightHandRing4
											{
												OFFSET -2.654905 -0.000005 0.000004
												CHANNELS 3 Zrotation Yrotation Xrotation
												JOINT RightHandRingEnd
												{
													OFFSET -1.933570 0.077523 -0.000052
													CHANNELS 3 Zrotation Yrotation Xrotation
													End Site
													{
														OFFSET 0.000000 0.000000 0.000000
													}
												}
											}
										}
									}
								}
								JOINT RightHandPinky1
								{
									OFFSET -2.866429 -0.342798 -1.584145
									CHANNELS 3 Zrotation Yrotation Xrotation
									JOINT RightHandPinky2
									{
										OFFSET -5.091369 -1.332055 -1.772385
										CHANNELS 3 Zrotation Yrotation Xrotation
										JOINT RightHandPinky3
										{
											OFFSET -3.062666 -0.000005 0.000000
											CHANNELS 3 Zrotation Yrotation Xrotation
											JOINT RightHandPinky4
											{
												OFFSET -1.546527 0.000005 -0.000002
												CHANNELS 3 Zrotation Yrotation Xrotation
												JOINT RightHandPinkyEnd
												{
													OFFSET -1.945122 -0.157721 0.057211
													CHANNELS 3 Zrotation Yrotation Xrotation
													End Site
													{
														OFFSET 0.000000 0.000000 0.000000
													}
												}
											}
										}
									}
								}
							}
						}
					}
				}
			}
		}
	}
	JOINT LeftLeg
	{
		OFFSET 10.043214 -8.434526 2.595655
		CHANNELS 3 Zrotation Yrotation Xrotation
		JOINT LeftShin
		{
			OFFSET -0.000001 -43.221752 -0.802913
			CHANNELS 3 Zrotation Yrotation Xrotation
			JOINT LeftFoot
			{
				OFFSET 0.000002 -42.155094 -3.481523
				CHANNELS 3 Zrotation Yrotation Xrotation
				JOINT LeftToeBase
				{
					OFFSET 0.000000 -5.059474 13.231529
					CHANNELS 3 Zrotation Yrotation Xrotation
					JOINT LeftToeEnd
					{
						OFFSET -0.009607 -1.647615 6.513017
						CHANNELS 3 Zrotation Yrotation Xrotation
						End Site
						{
							OFFSET 0.000000 0.000000 0.000000
						}
					}
				}
			}
		}
	}
	JOINT RightLeg
	{
		OFFSET -10.047277 -8.295259 2.620317
		CHANNELS 3 Zrotation Yrotation Xrotation
		JOINT RightShin
		{
			OFFSET 0.000000 -43.362209 -0.805556
			CHANNELS 3 Zrotation Yrotation Xrotation
			JOINT RightFoot
			{
				OFFSET 0.000002 -42.117393 -3.478399
				CHANNELS 3 Zrotation Yrotation Xrotation
				JOINT RightToeBase
				{
					OFFSET -0.000001 -5.079609 13.284196
					CHANNELS 3 Zrotation Yrotation Xrotation
					JOINT RightToeEnd
					{
						OFFSET 0.009532 -1.634383 6.460591
						CHANNELS 3 Zrotation Yrotation Xrotation
						End Site
						{
							OFFSET 0.000000 0.000000 0.000000
						}
					}
				}
			}
		}
	}
}
MOTION
Frames: 4
Frame Time: 0.033333
2.593523 93.997971 5.166965 1.928746 0.529308 -2.701915 0.076916 0.503985 1.681355 -0.277900 0.710928 -4.231104 -2.304750 -1.152672 16.252691 -6.009766 6.831120 14.503630 2.058031 10.794275 -3.450910 -6.956835 13.510210 -14.248501 0.000077 -0.000022 0.000006 0.025651 -0.181688 0.008837 0.762395 -3.923788 -10.650173 -0.722682 3.560775 -10.632064 -7.840736 -7.855593 15.591076 -53.442085 -4.533003 -34.021999 179.825134 -48.218010 179.881821 4.540903 -19.240969 6.827940 -5.882102 9.861281 0.702590 -10.936858 -0.360576 7.156196 -0.000001 8.774812 -0.000001 -16.619537 18.404242 5.570078 -1.844031 2.498503 -2.507276 -10.163589 4.678939 4.621103 -20.975992 -0.000001 0.000003 -21.226254 2.451694 -3.593993 0.000001 -0.000004 0.000001 -1.362682 2.240798 -0.746322 -21.334890 0.584910 3.008321 -13.821194 -0.000001 0.000003 -23.887129 -0.249078 -0.839482 -60.667896 2.804286 -1.868437 -0.294025 1.679686 0.833255 -14.218194 0.093215 1.300577 -34.211998 -0.287562 0.967167 -20.033176 0.964536 1.212840 0.000001 0.000002 0.000000 -3.440386 0.788233 0.501655 -15.928165 -3.167305 2.999701 -6.338817 0.000002 0.000002 -18.123415 3.648178 -4.905663 -0.000004 0.000001 -0.000001 -9.877002 11.272089 9.537762 57.856720 30.385653 6.109947 -179.838181 34.456123 -179.692963 -4.051240 5.750022 2.085940 2.243539 -5.255032 -3.180154 14.282875 -0.826593 6.952498 -0.000003 -12.690592 0.000003 17.584261 -17.754431 2.159642 1.665665 -1.955920 -2.878296 4.727794 -4.170584 4.993921 11.020511 0.000003 -0.000001 12.109030 -3.735710 -2.866779 -0.000000 0.000000 -0.000000 1.291983 -1.928547 -1.498087 14.800113 0.567467 3.865602 14.242551 -1.341734 -6.660649 19.631933 0.143926 -0.648243 51.581631 -0.755627 -6.168977 0.353029 -1.511149 -0.031941 20.222767 3.684306 2.316628 18.787245 0.000004 -0.000001 10.751609 -0.479868 1.397903 0.000000 -0.000000 0.000001 3.273803 0.305947 -0.580109 21.486788 11.830361 2.266129 8.162916 0.000003 0.000001 18.399050 -3.798980 -4.940566 0.000002 -0.000002 -0.000002 14.028450 26.909189 -17.527006 -0.390568 -0.882438 20.942787 -14.741244 11.527636 5.549219 1.676328 -1.918376 -0.769799 -0.000000 0.000001 0.000002 -21.362156 -18.077679 -7.200021 0.288553 0.601366 32.498508 19.943567 -4.262816 -11.928530 -1.401336 0.915448 -1.345556 -0.000000 0.000001 -0.000001 
2.578105 94.008858 5.267272 1.987929 0.667415 -2.685584 0.031434 0.455181 1.721811 -0.227494 0.707376 -4.230676 -2.333297 -1.088383 16.349606 -6.047451 6.715163 14.360028 2.032472 10.845949 -3.420800 -7.057757 13.483177 -14.230757 0.000077 -0.000021 0.000006 0.025496 -0.161918 0.011689 0.752726 -3.898788 -10.655690 -0.710146 3.584260 -10.635087 -7.761703 -7.886394 15.518476 -53.536125 -4.583260 -33.659561 179.486786 -48.327988 -179.836182 4.481281 -19.296379 6.474682 -5.882101 9.861280 0.702587 -10.936858 -0.360575 7.156197 -0.000001 8.774814 -0.000002 -16.761984 18.270960 5.567147 -1.844032 2.498502 -2.507276 -10.163589 4.678939 4.621102 -20.975998 -0.000002 0.000002 -21.226255 2.451690 -3.593996 0.000001 -0.000006 0.000000 -1.362680 2.240799 -0.746323 -21.334892 0.584910 3.008320 -13.821197 -0.000002 0.000003 -23.887131 -0.249077 -0.839481 -60.895462 2.699548 -1.753154 -0.294025 1.679687 0.833257 -14.218194 0.093216 1.300580 -34.212002 -0.287562 0.967169 -20.033182 0.964533 1.212841 -0.000000 0.000001 -0.000001 -3.440388 0.788234 0.501654 -15.928167 -3.167305 2.999704 -6.338817 0.000002 0.000002 -18.123413 3.648177 -4.905662 -0.000003 0.000001 -0.000001 -9.821720 11.256785 9.572333 57.893841 30.331137 5.796985 -179.982346 34.450928 -179.723694 -3.949587 5.824477 1.902026 2.243541 -5.255033 -3.180155 14.282877 -0.826592 6.952496 -0.000002 -12.690590 -0.000002 17.521645 -17.651773 2.194669 1.665664 -1.955920 -2.878296 4.727793 -4.170582 4.993918 11.020513 0.000004 -0.000001 12.109034 -3.735709 -2.866779 0.000000 0.000000 0.000000 1.291985 -1.928548 -1.498088 14.800117 0.567467 3.865603 14.242554 -1.341735 -6.660647 19.631941 0.143925 -0.648242 51.607361 -0.748949 -6.087978 0.353028 -1.511149 -0.031940 20.222773 3.684306 2.316629 18.787247 0.000003 -0.000000 10.751611 -0.479868 1.397904 0.000000 0.000000 0.000001 3.273804 0.305946 -0.580111 21.486792 11.830362 2.266131 8.162916 0.000003 0.000001 18.399054 -3.798978 -4.940569 0.000003 -0.000002 -0.000000 13.990314 26.444908 -17.472872 -0.373198 -0.848189 20.867714 -14.693093 11.848891 5.483943 1.678696 -1.945873 -0.722236 0.000000 0.000001 0.000002 -21.443254 -18.052023 -7.062017 0.282557 0.574654 32.459011 20.038860 -4.284503 -11.983789 -1.403106 0.915377 -1.442739 -0.000000 0.000001 -0.000001 
2.603726 94.011482 5.366657 2.028702 0.850832 -2.657063 0.013452 0.447534 1.746573 -0.205702 0.672673 -4.229210 -2.348900 -1.038408 16.426600 -6.098697 6.660222 14.295056 2.015799 10.863114 -3.421484 -7.163820 13.459177 -14.298707 0.000077 -0.000020 0.000006 0.026106 -0.130845 0.023141 0.743030 -3.874510 -10.660575 -0.704653 3.621854 -10.639582 -7.690574 -7.949104 15.448736 -53.583477 -4.627747 -33.429058 179.347717 -48.445637 -179.712540 4.460196 -19.385405 6.334689 -5.882099 9.861276 0.702590 -10.936860 -0.360572 7.156196 -0.000000 8.774813 -0.000000 -16.888083 18.165453 5.535360 -1.844031 2.498502 -2.507275 -10.163591 4.678942 4.621104 -20.975996 -0.000003 0.000000 -21.226250 2.451692 -3.593993 0.000001 -0.000006 -0.000000 -1.362680 2.240796 -0.746322 -21.334887 0.584908 3.008317 -13.821197 -0.000002 0.000002 -23.887129 -0.249080 -0.839483 -61.026684 2.704492 -1.731043 -0.294023 1.679686 0.833256 -14.218195 0.093215 1.300579 -34.212006 -0.287566 0.967166 -20.033180 0.964534 1.212840 -0.000000 -0.000001 0.000001 -3.440386 0.788232 0.501655 -15.928169 -3.167307 2.999702 -6.338817 0.000002 0.000001 -18.123415 3.648177 -4.905662 -0.000004 0.000001 -0.000001 -9.790483 11.249295 9.618402 57.960846 30.294128 5.508673 179.898270 34.439697 -179.734619 -3.864954 5.915722 1.718227 2.243540 -5.255033 -3.180157 14.282875 -0.826593 6.952497 -0.000004 -12.690590 0.000000 17.441336 -17.599617 2.219441 1.665664 -1.955920 -2.878299 4.727794 -4.170582 4.993918 11.020512 0.000005 -0.000000 12.109030 -3.735709 -2.866779 -0.000000 0.000000 -0.000001 1.291983 -1.928548 -1.498087 14.800113 0.567468 3.865606 14.242554 -1.341734 -6.660650 19.631937 0.143927 -0.648242 51.607296 -0.797504 -6.075680 0.353029 -1.511150 -0.031939 20.222767 3.684308 2.316628 18.787245 0.000006 -0.000001 10.751610 -0.479867 1.397905 0.000000 -0.000000 0.000001 3.273805 0.305947 -0.580110 21.486792 11.830364 2.266133 8.162916 0.000003 0.000000 18.399048 -3.798977 -4.940566 0.000003 0.000000 0.000000 13.912638 26.102484 -17.531961 -0.356128 -0.819247 20.936110 -14.695024 12.022927 5.368154 1.678840 -1.965473 -0.663640 0.000000 0.000001 0.000002 -21.529861 -18.072695 -6.893845 0.268342 0.562715 32.370136 20.139683 -4.288929 -12.030540 -1.404670 0.946620 -1.460065 0.000000 -0.000001 -0.000001 
2.609838 93.998672 5.381134 2.037844 1.032421 -2.603590 0.012901 0.440007 1.761600 -0.187170 0.681038 -4.219016 -2.351665 -1.068927 16.475708 -6.188497 6.627316 14.278457 2.000508 10.877546 -3.441664 -7.273641 13.451242 -14.394932 0.000077 -0.000022 0.000006 0.022889 -0.111545 0.023639 0.730831 -3.845272 -10.656075 -0.701789 3.630507 -10.638717 -7.613504 -7.973328 15.357968 -53.671570 -4.643270 -33.242496 179.375275 -48.486069 -179.725510 4.438810 -19.514639 6.310730 -5.882099 9.861279 0.702592 -10.936858 -0.360576 7.156199 0.000000 8.774812 -0.000000 -16.912550 18.120678 5.532540 -1.844030 2.498502 -2.507275 -10.163590 4.678938 4.621103 -20.975998 -0.000001 0.000004 -21.226254 2.451694 -3.593994 0.000000 -0.000005 -0.000001 -1.362679 2.240796 -0.746324 -21.334894 0.584907 3.008322 -13.821197 -0.000004 0.000004 -23.887129 -0.249078 -0.839479 -61.088497 2.688622 -1.759004 -0.294022 1.679684 0.833253 -14.218190 0.093214 1.300581 -34.212006 -0.287564 0.967176 -20.033178 0.964532 1.212845 0.000001 0.000001 0.000000 -3.440384 0.788232 0.501654 -15.928167 -3.167308 2.999704 -6.338817 0.000000 0.000001 -18.123413 3.648176 -4.905660 -0.000003 -0.000000 -0.000001 -9.779616 11.263886 9.621992 58.075142 30.217459 5.315089 179.888870 34.388859 -179.713058 -3.800321 5.923119 1.421927 2.243539 -5.255033 -3.180156 14.282875 -0.826594 6.952496 -0.000004 -12.690591 0.000000 17.361280 -17.567368 2.249230 1.665665 -1.955920 -2.878299 4.727794 -4.170583 4.993919 11.020510 0.000003 -0.000001 12.109030 -3.735710 -2.866780 -0.000000 0.000000 -0.000001 1.291983 -1.928548 -1.498088 14.800111 0.567468 3.865602 14.242553 -1.341736 -6.660650 19.631933 0.143925 -0.648243 51.666874 -0.864411 -6.047892 0.353030 -1.511149 -0.031941 20.222769 3.684305 2.316627 18.787243 0.000004 -0.000000 10.751611 -0.479867 1.397902 0.000000 0.000000 0.000001 3.273805 0.305947 -0.580110 21.486788 11.830360 2.266129 8.162915 0.000003 0.000001 18.399050 -3.798980 -4.940569 0.000002 0.000000 -0.000001 13.838394 25.831421 -17.702230 -0.346002 -0.804594 21.031136 -14.681487 12.126235 5.313696 1.678781 -1.976094 -0.606317 0.000000 0.000001 0.000002 -21.547953 -18.107870 -6.817881 0.269103 0.535288 32.291523 20.243378 -4.391686 -12.168142 -1.405643 0.959629 -1.431262 0.000000 0.000000 -0.000001 
